<svg width="2269" height="2269" viewBox="0 0 2269 2269" fill="none" xmlns="http://www.w3.org/2000/svg">
    <style>

        #ASTRONAUT {
            animation: ASTRONAUT 6s ease-in-out infinite;
        }

        #l_pupil {
            animation: l_pupil 5s ease-in-out infinite;
        }

        #r_pupil {
            animation: r_pupil 5s ease-in-out infinite;
        }

        #blue_light {
            animation: blue_light 3s ease-in-out infinite;
        }

        #head {
            transform-origin: 999px 1152px;
            animation: head 6s ease-in-out infinite;
        }

        #r_arm, #notebook {
            transform-origin: 896px 1382px;
            animation: r_arm 6s ease-in-out infinite;
        }

        #l_arm {
            transform-origin: 1229px 1173px;
            animation: l_arm 3s ease-in-out infinite;
        }

        #r_leg {
            transform-origin: 1440px 1690px;
            animation: r_leg 4s ease-in-out infinite;
        }

        #l_leg {
            transform-origin: 1600px 1444px;
            animation: l_leg 3s ease-in-out infinite;
        }

        @keyframes ASTRONAUT {
            0%, 100% {
                transform: translateY(0px);
            }

            50% {
                transform: translateY(-50px);
            }
        }

        @keyframes l_pupil {
            0%, 100% {
                transform: translate(10px, -15px);
            }

            50% {
                transform: translate(-20px, 10px);
            }
        }

        @keyframes r_pupil {
            0%, 100% {
                transform: translate(0px);
            }

            50% {
                transform: translate(-28px, 20px);
            }
        }

        @keyframes blue_light {
            0%, 2%, 6%, 10%, 100% {
                opacity: 1;
            }

            4%, 8% {
                opacity: 0;
            }
        }

        @keyframes head {
            0%, 100% {
                transform: rotate(0deg);
            }

            50% {
                transform: rotate(5deg);
            }
        }

        @keyframes r_arm {
            0%, 100% {
                transform: rotate(-3deg);
            }

            50% {
                transform: rotate(3deg);
            }
        }

        @keyframes l_arm {
            0%, 100% {
                transform: rotate(-5deg);
            }

            50% {
                transform: rotate(5deg);
            }
        }

        @keyframes r_leg {
            0%, 100% {
                transform: rotate(0deg);
            }

            50% {
                transform: rotate(10deg);
            }
        }

        @keyframes l_leg {
            0%, 100% {
                transform: rotate(0deg);
            }

            50% {
                transform: rotate(8deg);
            }
        }
    </style>
    <g>
        <g id="ASTRONAUT">
            <g id="l_arm">
                <g id="upper">
                    <path id="Vector 273"
                        d="M1209.87 1067.02C1153.47 1091 1166.21 1195.07 1198.15 1267.12C1199.94 1271.17 1201.86 1274.96 1203.9 1278.52C1219.35 1305.45 1241.98 1318.85 1272.38 1325.06L1329.17 1329.83C1350.06 1329.96 1373.26 1329.03 1398.88 1328C1405.64 1327.73 1412.57 1327.45 1419.67 1327.19L1436.72 1326.49C1494.41 1319.81 1531.27 1287.24 1548.23 1247.08C1581.52 1168.24 1538.1 1060.14 1424.83 1061.11C1369.14 1059.02 1316.99 1057.87 1277.28 1059L1222.1 1063.6C1217.06 1064.57 1212.95 1065.71 1209.87 1067.02Z"
                        fill="#CFCFCF" />
                </g>
                <g id="lower">
                    <g id="Vector 273_2">
                        <path fill-rule="evenodd" clip-rule="evenodd"
                            d="M1527.24 905.375C1562.12 891.687 1644.35 946.697 1637.95 1006.17C1635.15 1032.26 1618.69 1082.32 1599.96 1129.89C1529.59 1239.47 1496.93 1275.33 1444.3 1318.12C1425.62 1317.48 1404.45 1311.91 1380.5 1299.69C1377.48 1298.15 1374.57 1296.57 1371.77 1294.97C1291.03 1248.68 1298.79 1175.69 1324.85 1127.28C1342.38 1099.03 1354.56 1078.92 1366.37 1058.72L1376.13 1044.36L1383.9 1026.66L1393.16 1011.64C1404.98 990.446 1409.9 980.59 1416.42 967.493C1417.69 964.951 1419.02 962.286 1420.47 959.393C1462.34 875.923 1481 933.869 1481.75 947.373C1481.75 947.373 1492.37 919.063 1527.24 905.375Z"
                            fill="#CFCFCF" />
                        <path
                            d="M1548.12 1247.49C1548.12 1247.49 1560.23 1220.14 1577.31 1179.73L1582.94 1162.55L1595.19 1141.85C1596.79 1137.9 1598.39 1133.9 1599.96 1129.89C1529.59 1239.47 1496.93 1275.33 1444.3 1318.12C1495.78 1319.89 1528.33 1284.24 1548.12 1247.49Z"
                            fill="#CFCFCF" />
                    </g>
                    <g id="Vector">
                        <path
                            d="M1453.99 1149.48C1516.04 1184.89 1574.89 1198.63 1585.43 1180.16C1588.03 1175.61 1587.45 1169.53 1584.17 1162.41C1561 1166.05 1514.68 1151.62 1466.42 1124.08C1419.67 1097.39 1384.44 1066.02 1374.42 1044.27C1367.8 1045.31 1363.07 1047.82 1360.73 1051.92C1350.19 1070.39 1391.94 1114.07 1453.99 1149.48Z"
                            fill="#2D4B89" />
                        <path
                            d="M1374.42 1044.27C1384.44 1066.02 1419.67 1097.39 1466.42 1124.08C1514.68 1151.62 1561 1166.05 1584.17 1162.41C1590.79 1161.38 1595.52 1158.86 1597.86 1154.76C1600.39 1150.32 1599.9 1144.44 1596.85 1137.56C1587.86 1138.54 1575.82 1137.08 1561.77 1133.44C1538.7 1127.47 1510.24 1115.61 1481.07 1098.97C1452.54 1082.68 1428.3 1064.65 1411.46 1048.13C1400.47 1037.34 1392.63 1027.2 1388.81 1018.6C1381.16 1019.43 1375.73 1022.02 1373.16 1026.52C1370.56 1031.07 1371.14 1037.15 1374.42 1044.27Z"
                            fill="#2D4B89" />
                    </g>
                    <g id="hand">
                        <circle id="Ellipse 15" cx="1520" cy="1041.46" r="50" fill="#D4BABA" />
                        <ellipse id="Ellipse 16" cx="1520" cy="961.955" rx="18" ry="17.5" fill="#D4BABA" />
                        <ellipse id="Ellipse 17" cx="1569" cy="974.955" rx="18" ry="17.5" fill="#D4BABA" />
                        <ellipse id="Ellipse 18" cx="1592" cy="1011.96" rx="18" ry="17.5" fill="#D4BABA" />
                    </g>
                </g>
                <g id="Vector 273_3">
                    <path
                        d="M1398.88 1328C1405.64 1327.73 1412.57 1327.45 1419.67 1327.19L1436.72 1326.49C1494.4 1319.81 1531.27 1287.24 1548.23 1247.08C1447.79 1295.7 1376.43 1303.58 1263.7 1288.08C1245.01 1285.51 1225.18 1282.29 1203.9 1278.52C1219.35 1305.45 1241.98 1318.85 1272.38 1325.06L1329.17 1329.83C1350.06 1329.96 1373.26 1329.03 1398.88 1328Z"
                        fill="#CFCFCF" />
                </g>
                <g id="Vector 274">
                    <path fill-rule="evenodd" clip-rule="evenodd"
                        d="M1222.1 1063.6C1221.38 1055.86 1275.94 1049.41 1277.28 1059C1286.52 1154.87 1299.87 1211.16 1320.36 1294.12C1320.7 1301.99 1267.66 1298.27 1263.83 1288.62C1261.85 1280.33 1259.92 1272.32 1258.03 1264.51C1241.95 1197.94 1229.53 1146.49 1222.1 1063.6Z"
                        fill="#2D4B89" />
                    <path
                        d="M1272.38 1325.06C1273.24 1335.35 1329.53 1337.93 1329.17 1329.83C1327 1321.01 1324.91 1312.53 1322.88 1304.32C1322.03 1300.87 1321.19 1297.48 1320.36 1294.12C1320.7 1301.99 1267.66 1298.27 1263.83 1288.62C1266.59 1300.15 1269.44 1312.23 1272.38 1325.06Z"
                        fill="#274279" />
                </g>
            </g>
            <g id="l_leg">
                <path id="Vector 275"
                    d="M1851.15 1461.7C1922.54 1346.03 1809.83 1203.88 1737.21 1217.01C1664.58 1230.14 1545.92 1281.45 1424.36 1374.89C1302.79 1468.33 1369.22 1658.69 1501.84 1676.42C1634.47 1694.14 1779.77 1577.36 1851.15 1461.7Z"
                    fill="#CFCFCF" />
                <path id="Vector 329" d="M1621 1258.95C1674 1299.95 1758.5 1490.45 1767 1558.45" stroke="#BCBCBC"
                    stroke-width="8" stroke-linecap="round" />
                <path id="Vector 276"
                    d="M1804.34 1105.45C1789.9 1202.91 1790.14 1229.43 1792.43 1241.22C1794.72 1253.01 1857.72 1409.3 1905 1367.9C1952.29 1326.5 1971.84 1152.53 1923.27 1076.88C1874.7 1001.22 1818.79 1008 1804.34 1105.45Z"
                    fill="#CFCFCF" />
                <ellipse id="Ellipse 7" cx="1809.87" cy="1308.73" rx="37.5" ry="126.5"
                    transform="rotate(-36.7463 1809.87 1308.73)" fill="#2D4B89" />
                <ellipse id="Ellipse 8" cx="1839.52" cy="1286.59" rx="37.5" ry="126.5"
                    transform="rotate(-36.7463 1839.52 1286.59)" fill="#2D4B89" />
            </g>
            <g id="tail">
                <path id="Vector 279"
                    d="M1808.78 1929.8C1680.41 2015.64 1503.03 2017.62 1387.31 1941.2C1387.31 1941.2 1614.74 1865.19 1665.36 1810.53C1715.99 1755.87 1787.56 1774.7 1859.43 1649.09C1931.3 1523.48 1902.95 1337.22 1877.42 1281.66C1851.9 1226.1 1903.01 1193.76 1968.13 1237.77C2033.25 1281.78 2057.74 1522.54 1996.88 1638.32C1936.03 1754.09 1937.15 1843.95 1808.78 1929.8Z"
                    fill="#F0F0F0" />
            </g>
            <g id="body">
                <g id="Vector 272">
                    <path fill-rule="evenodd" clip-rule="evenodd"
                        d="M714.924 1307.16C706.227 1320.29 737.924 1433.16 763.424 1499.16C788.924 1565.16 856.424 1707.16 883.924 1734.16C911.424 1761.16 1046.92 1797.16 1042.92 1765.66C1038.92 1734.16 788.924 1268.66 788.924 1268.66C740.188 1285.56 723.62 1294.04 714.924 1307.16Z"
                        fill="#D2D2D2" />
                    <path
                        d="M714.924 1307.16C723.62 1294.04 740.188 1285.56 788.924 1268.66L744.924 1260.66L714.924 1307.16Z"
                        fill="#D2D2D2" />
                </g>
                <g id="Vector 271">
                    <path
                        d="M1592.42 1846.54C1663.32 1751.52 1713.02 1624.82 1715.92 1530.66C1692.51 1505.62 1437.92 1472.16 1349.42 1513.16C1260.92 1554.16 1249.92 1638.66 1249.92 1698.66C1249.92 1726.57 1252.95 1758.6 1264.8 1787.83C1278.42 1821.45 1303.7 1851.39 1349.42 1867.16C1401.97 1885.29 1466.97 1887.37 1518.33 1877.66C1550.54 1871.58 1577.39 1860.85 1592.42 1846.54Z"
                        fill="#2D4B89" />
                    <path fill-rule="evenodd" clip-rule="evenodd"
                        d="M1220.42 986.163L1107.42 1058.66C1107.42 1058.66 1272.92 1279.66 1432.92 1314.16C1592.92 1348.66 1715.92 1530.66 1715.92 1530.66C1676.2 1402.7 1652.85 1360.98 1560.42 1268.98C1551.45 1264.13 1542.11 1259.38 1532.42 1254.66C1411.69 1195.85 1207.77 1007.33 1220.42 986.163Z"
                        fill="#E7E7E7" />
                    <path
                        d="M1560.42 1268.98C1652.85 1360.98 1676.2 1402.7 1715.92 1530.66C1715.92 1530.66 1720.92 1421.16 1677.92 1351.66C1634.92 1282.16 1560.42 1268.98 1560.42 1268.98Z"
                        fill="#2D4B89" />
                    <path fill-rule="evenodd" clip-rule="evenodd"
                        d="M1107.42 1058.66L802 1229.46C967.857 1527.53 1096.34 1692.96 1264.8 1787.83C1252.95 1758.6 1249.92 1726.57 1249.92 1698.66C1249.92 1638.66 1260.92 1554.16 1349.42 1513.16C1437.92 1472.16 1692.51 1505.62 1715.92 1530.66C1715.92 1530.66 1592.92 1348.66 1432.92 1314.16C1272.92 1279.66 1107.42 1058.66 1107.42 1058.66ZM1518.33 1877.66C1532.06 1880.46 1546.09 1883.1 1560.42 1885.57C1571.48 1873.35 1582.17 1860.28 1592.42 1846.54C1577.39 1860.85 1550.54 1871.58 1518.33 1877.66Z"
                        fill="#F0F0F0" />
                    <path
                        d="M756.924 1254.66C1031.67 1879.47 1152.11 1915.49 1304.11 1960.94C1318.06 1965.11 1332.29 1969.37 1346.92 1974.16C1420.35 1998.23 1496.5 1956.2 1560.42 1885.57C1546.09 1883.1 1532.06 1880.46 1518.33 1877.66C1466.97 1887.37 1401.97 1885.29 1349.42 1867.16C1303.7 1851.39 1278.42 1821.45 1264.8 1787.83C1096.34 1692.96 967.857 1527.53 802 1229.46L756.924 1254.66Z"
                        fill="#DDDDDD" />
                </g>
                <g id="Rectangle 1">
                    <path
                        d="M1146.92 1289.16C1160.6 1306.91 1265.34 1442.6 1332.23 1487.32C1383.24 1521.43 1490.4 1397.45 1518.56 1318.39C1479.57 1395.41 1389.51 1490.58 1344.05 1460.18C1287.38 1422.29 1208.19 1310.47 1172.51 1278.69L1146.92 1289.16Z"
                        fill="#C8C8C8" />
                    <path
                        d="M1172.51 1278.69C1164.07 1264.76 1316.93 1104.43 1331.42 1102.41C1302.43 1096.65 1138.08 1279.04 1146.92 1289.16L1172.51 1278.69Z"
                        fill="#DADADA" />
                    <path
                        d="M1529.66 1236.61C1485.01 1195.36 1332.23 1102.63 1332.23 1102.63C1331.97 1102.54 1331.71 1102.46 1331.42 1102.41C1316.93 1104.43 1164.07 1264.76 1172.51 1278.69C1208.19 1310.47 1287.38 1422.29 1344.05 1460.18C1389.51 1490.58 1479.57 1395.41 1518.56 1318.39C1536.93 1282.09 1543.97 1249.83 1529.66 1236.61Z"
                        fill="#EEEEEE" />
                </g>
            </g>
            <g id="helmet">
                <g id="cover">
                    <g id="Ellipse 1">
                        <path fill-rule="evenodd" clip-rule="evenodd"
                            d="M920 1331.9C1185.62 1252.44 1356.73 985.751 1309.71 705.219C1258.76 401.283 977.259 227.603 673.323 278.545C573.313 295.308 484.005 337.703 411 397.877C133 738.455 238 1357.96 920 1331.9Z"
                            fill="#F8F8F8" />
                        <path
                            d="M215.239 921.108C266.181 1225.04 547.687 1398.72 851.622 1347.78C875.025 1343.86 897.841 1338.53 920 1331.9C238 1357.96 133 738.455 411 397.877C262.139 520.573 181.059 717.183 215.239 921.108Z"
                            fill="#EFEFEF" />
                    </g>
                    <g id="Vector_2">
                        <path
                            d="M1229.52 1023.17C1202.29 951.396 1053.17 941.419 896.451 1000.89C747.099 1057.56 644.749 1156.85 659.035 1228.18C736.073 1257.05 821.512 1266.64 908.485 1252.06C1047.13 1228.83 1162.06 1148.8 1233.45 1039.79C1232.85 1034.08 1231.56 1028.53 1229.52 1023.17Z"
                            fill="#CCCCCC" />
                        <path
                            d="M896.451 1000.89C1053.17 941.419 1202.29 951.396 1229.52 1023.17C1231.56 1028.53 1232.85 1034.08 1233.45 1039.79C1297.8 941.519 1326.77 819.702 1305.82 694.717C1261.63 431.088 1012.1 253.195 748.471 297.382C484.843 341.568 306.95 591.102 351.136 854.73C380.745 1031.39 502.56 1169.54 659.035 1228.18C644.749 1156.85 747.099 1057.56 896.451 1000.89Z"
                            fill="#ACD7EA" />
                    </g>
                </g>
                <g id="head">
                    <g id="l_ear">
                        <path
                            d="M1079.2 431.236C1142.61 528.227 1119.9 675.839 1113.33 689.899C1111.24 687.959 1107.31 685.378 1101.92 682.303C1113.84 680.514 1112.47 455.125 1069.3 434.606C1026.13 414.086 1020.54 523.977 973.61 595.249L853.702 575.508C973.463 444.418 1057.83 412.6 1079.2 431.236Z"
                            fill="white" />
                        <path
                            d="M1101.92 682.303C1086.12 658.515 997.854 589.001 973.61 595.249C1020.54 523.977 1026.13 414.086 1069.3 434.606C1112.47 455.125 1113.84 680.514 1101.92 682.303Z"
                            fill="#FCE2E2" />
                    </g>
                    <g id="face_base">
                        <path
                            d="M917.619 566.603C804.94 565.171 720.477 578.985 608.576 672.614C528.257 739.818 481.829 849.59 481.664 951.955C482.298 1019.41 549.032 1037.13 640 1081.46C640 1242.5 841.775 1221.62 1011.3 1157.83C1018.48 1154.16 1025.37 1150.45 1032 1146.69C1042.09 1140.97 1051.57 1135.14 1060.58 1129.24C1063.66 1127.22 1066.97 1125.08 1070.46 1122.81L1070.47 1122.8C1126.51 1086.48 1231.48 1018.44 1254.19 916.314C1274.06 826.98 1247.86 775.663 1200.54 758.568C1184.45 752.753 1159.6 728.847 1129.39 699.775C1070.78 643.381 991.968 567.548 917.619 566.603Z"
                            fill="white" />
                        <path
                            d="M677.524 1225.57C677.524 1225.57 722.611 1241.76 830.868 1218.67C908.356 1202.14 965.704 1181.08 1011.3 1157.83C841.775 1221.62 640 1242.5 640 1081.46C549.032 1037.13 482.298 1019.41 481.664 951.955C481.599 992.205 488.686 1031.31 503.679 1066.23C505.924 1071.46 508.291 1076.54 510.764 1081.46C566.79 1192.91 677.524 1225.57 677.524 1225.57Z"
                            fill="#F1F1F1" />
                    </g>
                    <path id="hair"
                        d="M751.478 670.404C770.128 649.38 787.185 640.095 819.882 630.334C823.645 629.211 826.726 633.846 824.912 637.329C820.658 645.501 820.053 654.051 823.03 667.835C823.504 670.029 825.742 671.333 827.92 670.792C846.554 666.167 856.224 667.016 867.412 672.077C869.939 673.22 870.347 676.575 868.369 678.52C847.266 699.277 849.089 712.411 856.176 734.919"
                        stroke="#E1EDEC" stroke-width="8" stroke-linecap="round" />
                    <g id="face">
                        <path id="mouth"
                            d="M981.373 1035.54C1011.28 1011.54 987.601 950.805 976.964 937.643C994.794 977.133 1017.81 1009.3 1052.39 989.802"
                            stroke="#353535" stroke-width="5" />
                        <path id="nose"
                            d="M976.563 919.595C971.887 915.801 955.355 926.556 956.623 932.505C957.892 938.454 971.649 943.841 977.598 942.572C983.547 941.303 981.238 923.388 976.563 919.595Z"
                            fill="#353535" />
                        <path id="l_eyebrow"
                            d="M1014.25 815.589C1011.93 809.557 1017.47 798.694 1023.1 794.738C1028.73 790.783 1030.61 788.79 1035.67 797.774C1040.73 806.758 1034.55 807.855 1027.43 817.037C1020.3 826.22 1016.56 821.62 1014.25 815.589Z"
                            fill="#353535" />
                        <path id="r_eyebrow"
                            d="M818.332 914.512C812.853 909.893 799.458 911.742 793.266 916.203C787.074 920.664 784.301 921.914 791.877 930.48C799.452 939.047 802.846 932.976 815.059 928.847C827.273 924.719 823.811 919.132 818.332 914.512Z"
                            fill="#353535" />
                        <g id="r_whisker">
                            <path id="Vector 315"
                                d="M771.655 1119C770.029 1107.29 736.24 1142.32 729.62 1151.37C723 1160.43 725.652 1173.21 740.151 1160.84C754.649 1148.48 773.281 1130.71 771.655 1119Z"
                                fill="#353535" />
                            <path id="Vector 316"
                                d="M803.864 1153.97C798.961 1144.7 783.24 1184.5 780.838 1194.12C778.436 1203.74 784.476 1213.58 792.047 1198.73C799.618 1183.87 808.767 1163.23 803.864 1153.97Z"
                                fill="#353535" />
                            <path id="Vector 317"
                                d="M791.4 1138.32C787.415 1128.25 759.646 1164.6 754.639 1173.65C749.631 1182.71 754.881 1193.56 767.324 1180.31C779.767 1167.06 795.386 1148.39 791.4 1138.32Z"
                                fill="#353535" />
                        </g>
                        <g id="l_whisker">
                            <path id="Vector 318"
                                d="M1199.17 861.484C1189.39 854.83 1235.78 840.093 1246.83 838.177C1257.88 836.262 1268.16 844.309 1250.64 851.815C1233.13 859.322 1208.94 868.137 1199.17 861.484Z"
                                fill="#353535" />
                            <path id="Vector 319"
                                d="M1216.21 905.863C1210.09 897.36 1252.72 900.926 1262.41 903.043C1272.1 905.161 1278.23 914.937 1261.57 915.132C1244.9 915.328 1222.34 914.367 1216.21 905.863Z"
                                fill="#353535" />
                            <path id="Vector 320"
                                d="M1207.72 887.75C1200.46 879.71 1245.36 870.954 1255.7 870.484C1266.03 870.015 1273.43 879.533 1256.03 884.806C1238.64 890.079 1214.97 895.791 1207.72 887.75Z"
                                fill="#353535" />
                        </g>
                        <path id="glass"
                            d="M1077.17 936.966C1045.12 934.508 982.519 902.735 976.468 896.666C970.417 890.596 959.814 874.087 956.615 875.999C953.417 877.911 960.022 885.548 968.92 896.945C950.807 898.36 941.682 905.221 930.704 919.078C923.197 905.373 918.408 894.581 915.977 897.69C913.546 900.799 923.571 913.735 926.924 924.008C930.277 934.282 935.734 1009.37 932.641 1033.43C929.548 1057.48 819.327 1096.36 787.73 1090.89C756.133 1085.42 726.638 1019.6 719.088 1024.04C711.539 1028.49 755.826 1096.37 787.423 1101.84C819.02 1107.3 935.481 1067.38 938.574 1043.33C941.667 1019.27 936.524 929.847 936.524 929.847C950.848 910.657 951.004 906.695 976.637 906.664C976.637 906.664 1051.05 944.409 1083.1 946.867C1115.14 949.325 1155.75 908.351 1165.36 870.233C1173.59 837.595 1137.08 787.149 1132.49 790.522C1127.89 793.896 1165.07 837.976 1157 869.999C1147.39 908.117 1109.21 939.424 1077.17 936.966Z"
                            fill="#D9D9D9" />
                        <g id="r_eye">
                            <path id="Vector 307"
                                d="M879.193 935.877C858.948 947.977 788.153 982.289 764.944 989.36C741.734 996.431 755.744 1026.4 799.293 1055.74C842.842 1085.07 884.089 1051.95 884.419 1051.9C917.512 1025.41 910.64 1002.8 910.993 982.783C911.346 962.765 899.439 923.778 879.193 935.877Z"
                                fill="#353535" />
                            <circle id="r_pupil" cx="875.422" cy="1008.92" r="17.5"
                                transform="rotate(-10.6045 875.422 1008.92)" fill="white" />
                        </g>
                        <g id="l_eye">
                            <path id="Vector 308"
                                d="M1010.49 864.875C1027.65 855.381 1081.87 818.84 1096.64 805.113C1111.4 791.387 1127.18 813.987 1130.2 857.552C1133.21 901.117 1092.16 916.92 1091.98 917.137C1059.1 929.849 1045.66 915.457 1031.08 907.342C1016.49 899.227 993.337 874.369 1010.49 864.875Z"
                                fill="#353535" />
                            <circle id="l_pupil" cx="1083.42" cy="886.921" r="17.5"
                                transform="rotate(-10.6045 1083.42 886.921)" fill="white" />
                        </g>
                    </g>
                    <g id="r_ear">
                        <path
                            d="M422.412 617.318C406.076 761.898 483.968 940.746 495.187 956.259C496.213 953.086 498.586 948.462 502.017 942.709C491.033 944.567 404.987 650.731 432.272 618.161C459.557 585.592 592.338 677.023 663.161 740.791L673.761 721.881C518.751 597.46 433.463 586.367 422.412 617.318Z"
                            fill="white" />
                        <path
                            d="M502.017 942.709C506.235 907.166 639.797 741.263 663.161 740.791C592.338 677.023 459.557 585.592 432.272 618.161C404.987 650.731 491.033 944.567 502.017 942.709Z"
                            fill="#FCE2E2" />
                    </g>
                </g>
                <g id="glass_2">
                    <path id="Vector (Stroke)" fill-rule="evenodd" clip-rule="evenodd"
                        d="M752.273 320.066C501.172 362.153 331.733 599.828 373.82 850.928C402.017 1019.16 518.002 1150.77 667.106 1206.64C740.457 1234.13 821.805 1243.27 904.683 1229.38C1033.51 1207.79 1140.83 1134.74 1209.15 1034.74C1208.82 1033.59 1208.44 1032.45 1208.02 1031.33L1212.63 1029.58C1213.15 1028.79 1213.68 1027.99 1214.2 1027.19C1275.51 933.568 1303.09 817.577 1283.14 698.519C1241.05 447.418 1003.37 277.979 752.273 320.066ZM328.453 858.532C282.166 582.376 468.513 320.985 744.669 274.699C1020.83 228.412 1282.22 414.759 1328.5 690.915C1350.45 821.828 1320.09 949.471 1252.69 1052.39C1177.93 1166.54 1057.52 1250.41 912.287 1274.75C821.218 1290.01 731.688 1279.97 650.965 1249.72C487.118 1188.32 359.474 1043.61 328.453 858.532Z"
                        fill="#B4B4B4" />
                    <circle id="Ellipse 14" cx="919.623" cy="411.9" r="40" transform="rotate(1.84612 919.623 411.9)"
                        fill="white" />
                    <path id="Vector 326 (Stroke)" fill-rule="evenodd" clip-rule="evenodd"
                        d="M1112.6 595.472C1102.07 540.422 1057.16 496.685 1013.81 486.12C992.347 480.889 979.188 459.249 984.419 437.786C989.65 416.323 1011.29 403.164 1032.75 408.395C1107.39 426.584 1174.92 495.481 1191.18 580.435C1195.33 602.132 1181.11 623.088 1159.41 627.24C1137.71 631.393 1116.76 617.17 1112.6 595.472Z"
                        fill="white" />
                </g>
            </g>
            <g id="r_leg">
                <g id="Vector 275_2">
                    <path fill-rule="evenodd" clip-rule="evenodd"
                        d="M1764.67 1810.23C1883.82 1744.82 1855.89 1565.57 1786.24 1541.17C1716.59 1516.78 1588.06 1502.88 1436.22 1524.2C1322.73 1540.14 1273.9 1655 1301 1745.75C1414.9 1826.37 1487.53 1854.51 1641 1858.19C1685.58 1846.97 1728.17 1830.26 1764.67 1810.23Z"
                        fill="white" />
                    <path
                        d="M1301 1745.75C1310.16 1776.4 1327.98 1804.31 1354.91 1824.72C1428.87 1880.79 1540.05 1883.57 1641 1858.19C1487.53 1854.51 1414.9 1826.37 1301 1745.75Z"
                        fill="#F5F5F5" />
                </g>
                <path id="Vector 329_2" d="M1603.23 1865.46C1510.88 1787.68 1508 1559.96 1611 1514.96" stroke="#EAEAEA"
                    stroke-width="8" stroke-linecap="round" />
                <g id="Vector_3">
                    <path fill-rule="evenodd" clip-rule="evenodd"
                        d="M1767.01 1661.5C1758.26 1592.18 1767.83 1533.89 1788.37 1531.3C1795.05 1530.45 1802.06 1535.59 1808.79 1545.29C1800.25 1568.29 1797.81 1610.06 1803.72 1656.86C1809.62 1703.66 1822.37 1743.52 1836.35 1763.68C1832.24 1774.74 1826.73 1781.46 1820.05 1782.3C1799.51 1784.9 1775.76 1730.81 1767.01 1661.5Z"
                        fill="#335394" />
                    <path
                        d="M1878.13 1647.47C1869.38 1578.16 1845.63 1524.07 1825.08 1526.66C1818.41 1527.5 1812.89 1534.22 1808.79 1545.29C1800.25 1568.29 1797.81 1610.06 1803.72 1656.86C1809.62 1703.66 1822.37 1743.52 1836.35 1763.68C1843.08 1773.38 1850.09 1778.51 1856.76 1777.67C1877.31 1775.08 1886.88 1716.79 1878.13 1647.47Z"
                        fill="#2D4B89" />
                </g>
                <path id="Vector 276_2"
                    d="M1896.42 1460.79C1848.42 1546.83 1837.03 1531.98 1832.43 1585.87C1827.82 1639.77 1838.82 1763.87 1897.7 1741.88C1956.58 1719.89 2036.42 1564.09 2017.77 1476.14C1999.11 1388.2 1944.42 1374.75 1896.42 1460.79Z"
                    fill="white" />
            </g>
            <g id="notebook">
                <g id="Vector_4">
                    <path d="M1428.52 1098H1752.04L1734.3 1118L1438.52 1451.5H1135.76H1115L1428.52 1098Z"
                        fill="#B8B8B8" />
                    <path d="M1118.02 1471.5H1441.54L1438.52 1451.5H1135.76H1115L1118.02 1471.5Z" fill="#A9A9A9" />
                    <path d="M1441.54 1471.5L1755.06 1118L1752.04 1098L1734.3 1118L1438.52 1451.5L1441.54 1471.5Z"
                        fill="#797979" />
                    <path d="M1543.3 1098H1723.04L1705.3 1118L1409.52 1451.5H1229.78L1543.3 1098Z" fill="#979797" />
                    <path d="M1353.62 1202.03H1433.86L1342.32 1303.03H1260.08L1353.62 1202.03Z" fill="#CBCBCB" />
                </g>
                <path id="blue_light"
                    d="M785.5 1530.5L654 989.999L1323.5 494.999L1761 773.999L1452 1121.5L1425 1449L785.5 1530.5Z"
                    fill="url(#paint0_linear_4_10)" />
                <g id="Vector_5">
                    <path d="M1759.53 769.499L1446.01 1123H1465.52L1757.54 793.736L1779.04 769.499H1759.53Z"
                        fill="#7F7F7F" />
                    <path
                        d="M1752.04 1098L1779.04 769.499L1757.54 793.736L1465.52 1123L1440.51 1427.26L1438.52 1451.5L1752.04 1098Z"
                        fill="#595959" />
                    <path d="M1446.01 1123L1419.02 1451.5H1438.52L1440.51 1427.26L1465.52 1123H1446.01Z"
                        fill="#6F6F6F" />
                </g>
            </g>
            <path id="pipe" fill-rule="evenodd" clip-rule="evenodd"
                d="M627.307 1265.99C647.562 1268.68 661.797 1287.29 659.1 1307.55C649.822 1377.24 674.728 1463.72 721.604 1532.36C768.997 1601.76 831.335 1642.76 890.523 1639.71C910.931 1638.66 928.325 1654.35 929.375 1674.76C930.425 1695.17 914.733 1712.56 894.325 1713.61C798.013 1718.57 714.601 1653.32 660.494 1574.09C605.87 1494.11 573.526 1389.59 585.748 1297.78C588.444 1277.53 607.051 1263.29 627.307 1265.99Z"
                fill="#BCBCBC" />
            <g id="r_arm">
                <g id="upper_2">
                    <path id="Vector 273_4"
                        d="M963.223 1254.92C911.685 1221.76 832.775 1290.78 791.136 1357.71C788.799 1361.46 786.739 1365.18 784.945 1368.86C771.356 1396.79 772.991 1423.03 784.945 1451.66L812.924 1501.32C824.554 1518.67 838.369 1537.33 853.62 1557.94C857.645 1563.38 861.771 1568.96 865.983 1574.68L876.145 1588.38C914.095 1632.34 961.752 1644.53 1004.5 1635.98C1088.42 1619.2 1153.42 1522.51 1088.94 1429.38C1059.37 1382.15 1031 1338.36 1007.75 1306.16L972.924 1263.11C969.288 1259.49 966.038 1256.73 963.223 1254.92Z"
                        fill="white" />
                </g>
                <g id="lower_2">
                    <g id="Vector 273_5">
                        <path fill-rule="evenodd" clip-rule="evenodd"
                            d="M1275.31 1426.54C1306.24 1447.69 1306.96 1546.62 1254.18 1574.76C1231.03 1587.11 1180.37 1601.64 1130.5 1612.89C1000.31 1616.28 952.299 1609.42 887.327 1589.96C877.357 1574.15 870.061 1553.51 866.705 1526.82C866.283 1523.46 865.95 1520.17 865.704 1516.96C858.605 1424.16 923.33 1389.54 978.017 1383.89C1011.23 1382.51 1034.71 1381.27 1058.05 1379.69L1075.42 1379.69L1094.42 1376.16L1112.05 1375.38C1136.23 1373.24 1147.14 1371.77 1161.64 1369.8C1164.46 1369.42 1167.41 1369.02 1170.62 1368.6C1263.19 1356.3 1225.75 1404.31 1215.01 1412.52C1215.01 1412.52 1244.39 1405.39 1275.31 1426.54Z"
                            fill="white" />
                        <path
                            d="M1004.1 1636.11C1004.1 1636.11 1033.53 1630.75 1076.55 1622.17L1093.92 1617.16L1117.92 1615.66C1122.1 1614.76 1126.3 1613.84 1130.5 1612.89C1000.31 1616.28 952.299 1609.42 887.327 1589.96C914.802 1633.52 962.576 1640.41 1004.1 1636.11Z"
                            fill="#F5F5F5" />
                    </g>
                    <g id="Vector_6">
                        <path
                            d="M1032.25 1503.18C1037.84 1574.4 1059.55 1630.79 1080.75 1629.13C1085.98 1628.72 1090.68 1624.82 1094.72 1618.11C1078.7 1600.99 1064.6 1554.57 1060.25 1499.18C1056.03 1445.51 1062.18 1398.73 1074.53 1378.22C1069.95 1373.33 1065.22 1370.83 1060.5 1371.2C1039.31 1372.86 1026.66 1431.95 1032.25 1503.18Z"
                            fill="#2D4B89" />
                        <path
                            d="M1074.53 1378.22C1062.18 1398.73 1056.03 1445.51 1060.25 1499.18C1064.6 1554.57 1078.7 1600.99 1094.72 1618.11C1099.3 1623 1104.04 1625.5 1108.75 1625.13C1113.84 1624.73 1118.44 1621.02 1122.41 1614.63C1116.55 1607.74 1110.98 1596.96 1106.09 1583.3C1098.07 1560.86 1091.88 1530.66 1089.25 1497.18C1086.68 1464.42 1087.96 1434.24 1092.16 1411.02C1094.9 1395.87 1098.89 1383.69 1103.85 1375.7C1098.87 1369.83 1093.67 1366.79 1088.5 1367.2C1083.28 1367.61 1078.57 1371.51 1074.53 1378.22Z"
                            fill="#3659A0" />
                    </g>
                </g>
                <g id="Vector 273_6">
                    <path
                        d="M853.62 1557.94C857.645 1563.38 861.771 1568.96 865.983 1574.68L876.145 1588.38C914.095 1632.34 961.752 1644.53 1004.5 1635.98C907.825 1580.24 861.198 1525.64 810.656 1423.7C802.275 1406.8 793.787 1388.59 784.945 1368.86C771.356 1396.79 772.991 1423.03 784.945 1451.66L812.924 1501.32C824.554 1518.67 838.369 1537.33 853.62 1557.94Z"
                        fill="#F5F5F5" />
                </g>
                <g id="Vector 274_2">
                    <path fill-rule="evenodd" clip-rule="evenodd"
                        d="M972.924 1263.11C978.924 1258.16 1014.92 1299.66 1007.75 1306.16C933.648 1367.7 894.602 1410.38 837.502 1473.95C831.188 1478.66 804.449 1432.7 810.28 1424.11C816.024 1417.81 821.561 1411.71 826.955 1405.76C872.976 1355.05 908.547 1315.84 972.924 1263.11Z"
                        fill="#2D4B89" />
                    <path
                        d="M784.945 1451.66C776.924 1458.16 806.424 1506.16 812.924 1501.32C818.996 1494.57 824.833 1488.07 830.483 1481.77C832.855 1479.13 835.193 1476.53 837.502 1473.95C831.188 1478.66 804.449 1432.7 810.28 1424.11C802.291 1432.88 793.903 1442.02 784.945 1451.66Z"
                        fill="#274279" />
                </g>
                <path id="Vector 328" d="M947 1630.46C973.372 1574.24 985.202 1378.8 1050 1371.46" stroke="#EAEAEA"
                    stroke-width="8" stroke-linecap="round" />
            </g>
        </g>
    </g>
    <defs>
        <linearGradient id="paint0_linear_4_10" x1="1761" y1="1182" x2="1431" y2="797.999"
            gradientUnits="userSpaceOnUse">
            <stop stop-color="#ADF0FF" stop-opacity="0.5" />
            <stop offset="1" stop-color="#B0F1FF" stop-opacity="0" />
        </linearGradient>
    </defs>
</svg>